<?xml version="1.0" encoding="UTF-8" standalone="no"?>
<!DOCTYPE svg PUBLIC "-//W3C//DTD SVG 1.1//EN" "http://www.w3.org/Graphics/SVG/1.1/DTD/svg11.dtd">
<svg version="1.1" xmlns="http://www.w3.org/2000/svg" xmlns:xlink="http://www.w3.org/1999/xlink" preserveAspectRatio="xMidYMid meet" viewBox="0 0 366 366" width="366" height="366"><defs><path d="M363 183C363 282.34 282.34 363 183 363C83.66 363 3 282.34 3 183C3 83.66 83.66 3 183 3C282.34 3 363 83.66 363 183Z" id="d2ePoCRHwd"></path><path d="M155 122.86C155 142.29 146.16 158.07 135.28 158.07C124.4 158.07 115.56 142.29 115.56 122.86C115.56 103.42 124.4 87.65 135.28 87.65C146.16 87.65 155 103.42 155 122.86Z" id="f2qxYiK5ZQ"></path><path d="M255 122.86C255 142.29 246.16 158.07 235.28 158.07C224.4 158.07 215.56 142.29 215.56 122.86C215.56 103.42 224.4 87.65 235.28 87.65C246.16 87.65 255 103.42 255 122.86Z" id="a3Mp9RKWW"></path><path d="M279.63 245.91C248.28 259.61 216.92 266.46 185.57 266.46C154.21 266.46 122.86 259.61 91.5 245.91" id="bxwJQHc19"></path><path d="M277.07 265.38C245.71 279.08 214.36 285.94 183 285.94C151.64 285.94 120.29 279.08 88.93 265.38" id="a10S0kSYK5"></path><path d="M277.07 282.54C245.71 296.24 214.36 303.09 183 303.09C151.64 303.09 120.29 296.24 88.93 282.54" id="c1jiWnOHDA"></path></defs><g><g><g><use xlink:href="#d2ePoCRHwd" opacity="1" fill="#ffe600" fill-opacity="1"></use><g><use xlink:href="#d2ePoCRHwd" opacity="1" fill-opacity="0" stroke="#000000" stroke-width="6" stroke-opacity="1"></use></g></g><g><use xlink:href="#f2qxYiK5ZQ" opacity="1" fill="#000000" fill-opacity="1"></use></g><g><use xlink:href="#a3Mp9RKWW" opacity="1" fill="#000000" fill-opacity="1"></use></g><g><g><use xlink:href="#bxwJQHc19" opacity="1" fill-opacity="0" stroke="#000000" stroke-width="5" stroke-opacity="1"></use></g></g><g><g><use xlink:href="#a10S0kSYK5" opacity="1" fill-opacity="0" stroke="#000000" stroke-width="5" stroke-opacity="1"></use></g></g><g><g><use xlink:href="#c1jiWnOHDA" opacity="1" fill-opacity="0" stroke="#000000" stroke-width="5" stroke-opacity="1"></use></g></g></g></g></svg>