<?xml version="1.0" encoding="UTF-8" standalone="no"?>
<!DOCTYPE svg PUBLIC "-//W3C//DTD SVG 1.1//EN" "http://www.w3.org/Graphics/SVG/1.1/DTD/svg11.dtd">
<svg version="1.1" xmlns="http://www.w3.org/2000/svg" xmlns:xlink="http://www.w3.org/1999/xlink" preserveAspectRatio="xMidYMid meet" viewBox="0 0 366 366" width="366" height="366"><defs><path d="M363 183C363 282.34 282.34 363 183 363C83.66 363 3 282.34 3 183C3 83.66 83.66 3 183 3C282.34 3 363 83.66 363 183Z" id="ba2nNTv5P"></path><path d="M285 242.86C251.67 276.19 218.33 292.86 185 292.86C151.67 292.86 118.33 276.19 85 242.86" id="a6iZ2Do9oC"></path><path d="M93.03 232.86L75 250.18L93.03 232.86Z" id="h32wx4VQpY"></path><path d="M276.97 232.86L295 250.18L276.97 232.86Z" id="af5KDNEKB"></path><path d="M155 122.86C155 142.29 146.16 158.07 135.28 158.07C124.4 158.07 115.56 142.29 115.56 122.86C115.56 103.42 124.4 87.65 135.28 87.65C146.16 87.65 155 103.42 155 122.86Z" id="a3Cmo0EKc7"></path><path d="M255 122.86C255 142.29 246.16 158.07 235.28 158.07C224.4 158.07 215.56 142.29 215.56 122.86C215.56 103.42 224.4 87.65 235.28 87.65C246.16 87.65 255 103.42 255 122.86Z" id="c7xSgeeL5"></path></defs><g><g><g><use xlink:href="#ba2nNTv5P" opacity="1" fill="#ffe600" fill-opacity="1"></use><g><use xlink:href="#ba2nNTv5P" opacity="1" fill-opacity="0" stroke="#000000" stroke-width="6" stroke-opacity="1"></use></g></g><g><g><use xlink:href="#a6iZ2Do9oC" opacity="1" fill-opacity="0" stroke="#000000" stroke-width="5" stroke-opacity="1"></use></g></g><g><g><use xlink:href="#h32wx4VQpY" opacity="1" fill-opacity="0" stroke="#000000" stroke-width="5" stroke-opacity="1"></use></g></g><g><g><use xlink:href="#af5KDNEKB" opacity="1" fill-opacity="0" stroke="#000000" stroke-width="5" stroke-opacity="1"></use></g></g><g><use xlink:href="#a3Cmo0EKc7" opacity="1" fill="#000000" fill-opacity="1"></use></g><g><use xlink:href="#c7xSgeeL5" opacity="1" fill="#000000" fill-opacity="1"></use></g></g></g></svg>