<?xml version="1.0" encoding="UTF-8" standalone="no"?>
<!DOCTYPE svg PUBLIC "-//W3C//DTD SVG 1.1//EN" "http://www.w3.org/Graphics/SVG/1.1/DTD/svg11.dtd">
<svg version="1.1" xmlns="http://www.w3.org/2000/svg" xmlns:xlink="http://www.w3.org/1999/xlink" preserveAspectRatio="xMidYMid meet" viewBox="0 0 366 366" width="366" height="366"><defs><path d="M363 183C363 282.34 282.34 363 183 363C83.66 363 3 282.34 3 183C3 83.66 83.66 3 183 3C282.34 3 363 83.66 363 183Z" id="c6UICkjQ0A"></path><path d="M284.69 245.92C251.36 289.78 218.03 311.71 184.69 311.71C151.36 311.71 118.03 289.78 84.69 245.92" id="e1KDirUHJC"></path><path d="M92.72 235.92L74.69 253.24L92.72 235.92Z" id="dUujMtx6B"></path><path d="M276.67 235.92L294.69 253.24L276.67 235.92Z" id="h4fDEFYcLZ"></path><path d="M154.69 125.92C154.69 145.35 145.86 161.13 134.98 161.13C124.09 161.13 115.26 145.35 115.26 125.92C115.26 106.48 124.09 90.71 134.98 90.71C145.86 90.71 154.69 106.48 154.69 125.92Z" id="b668Zpbtm"></path><path d="M254.69 125.92C254.69 145.35 245.86 161.13 234.98 161.13C224.09 161.13 215.26 145.35 215.26 125.92C215.26 106.48 224.09 90.71 234.98 90.71C245.86 90.71 254.69 106.48 254.69 125.92Z" id="b1tjMltjQ"></path><path d="M286.8 244.47C253.11 266.84 219.43 278.02 185.75 278.02C152.06 278.02 118.38 266.84 84.69 244.47" id="a5iWPjrQR"></path><path d="" id="a3N5qSX9tK"></path><path d="" id="c5vsZGwJ49"></path><path d="M143.67 273.31C159 277.96 172.95 279.83 185.53 278.92C199.41 278.72 213.7 276.54 228.41 272.37C243.12 268.21 258.82 261.89 275.53 253.42C261.93 272.94 247.73 287.11 232.93 295.92C218.12 304.73 202.04 309.51 184.69 310.28C169.93 310.49 154.93 305.95 139.69 296.65C124.46 287.36 108.98 272.82 93.28 253.03C111.54 261.9 128.33 268.66 143.67 273.31Z" id="b1UTv1KMN8"></path></defs><g><g><g><use xlink:href="#c6UICkjQ0A" opacity="1" fill="#ffe600" fill-opacity="1"></use><g><use xlink:href="#c6UICkjQ0A" opacity="1" fill-opacity="0" stroke="#000000" stroke-width="6" stroke-opacity="1"></use></g></g><g><g><use xlink:href="#e1KDirUHJC" opacity="1" fill-opacity="0" stroke="#000000" stroke-width="5" stroke-opacity="1"></use></g></g><g><g><use xlink:href="#dUujMtx6B" opacity="1" fill-opacity="0" stroke="#000000" stroke-width="5" stroke-opacity="1"></use></g></g><g><g><use xlink:href="#h4fDEFYcLZ" opacity="1" fill-opacity="0" stroke="#000000" stroke-width="5" stroke-opacity="1"></use></g></g><g><use xlink:href="#b668Zpbtm" opacity="1" fill="#000000" fill-opacity="1"></use></g><g><use xlink:href="#b1tjMltjQ" opacity="1" fill="#000000" fill-opacity="1"></use></g><g><g><use xlink:href="#a5iWPjrQR" opacity="1" fill-opacity="0" stroke="#000000" stroke-width="5" stroke-opacity="1"></use></g></g><g><g><use xlink:href="#a3N5qSX9tK" opacity="1" fill-opacity="0" stroke="#000000" stroke-width="1" stroke-opacity="1"></use></g></g><g><g><use xlink:href="#c5vsZGwJ49" opacity="1" fill-opacity="0" stroke="#000000" stroke-width="1" stroke-opacity="1"></use></g></g><g><use xlink:href="#b1UTv1KMN8" opacity="1" fill="#ffffff" fill-opacity="1"></use><g><use xlink:href="#b1UTv1KMN8" opacity="1" fill-opacity="0" stroke="#000000" stroke-width="1" stroke-opacity="1"></use></g></g></g></g></svg>