<?xml version="1.0" encoding="UTF-8" standalone="no"?>
<!DOCTYPE svg PUBLIC "-//W3C//DTD SVG 1.1//EN" "http://www.w3.org/Graphics/SVG/1.1/DTD/svg11.dtd">
<svg version="1.1" xmlns="http://www.w3.org/2000/svg" xmlns:xlink="http://www.w3.org/1999/xlink" preserveAspectRatio="xMidYMid meet" viewBox="0 0 370 370" width="370" height="370"><defs><path d="M364.69 185.92C364.69 285.26 284.04 365.92 184.69 365.92C85.35 365.92 4.69 285.26 4.69 185.92C4.69 86.57 85.35 5.92 184.69 5.92C284.04 5.92 364.69 86.57 364.69 185.92Z" id="e1yjtTeBM"></path><path d="M284.69 245.92C251.36 289.78 218.03 311.71 184.69 311.71C151.36 311.71 118.03 289.78 84.69 245.92" id="ebHQyzJxx"></path><path d="M92.72 235.92L74.69 253.24L92.72 235.92Z" id="bBvIujSki"></path><path d="M276.67 235.92L294.69 253.24L276.67 235.92Z" id="g343P89h9v"></path><path d="M154.69 125.92C154.69 145.35 145.86 161.13 134.98 161.13C124.09 161.13 115.26 145.35 115.26 125.92C115.26 106.48 124.09 90.71 134.98 90.71C145.86 90.71 154.69 106.48 154.69 125.92Z" id="g16q0lp1Aq"></path><path d="M254.69 125.92C254.69 145.35 245.86 161.13 234.98 161.13C224.09 161.13 215.26 145.35 215.26 125.92C215.26 106.48 224.09 90.71 234.98 90.71C245.86 90.71 254.69 106.48 254.69 125.92Z" id="c1krD9fiUa"></path><path d="M286.8 244.47C253.11 266.84 219.43 278.02 185.75 278.02C152.06 278.02 118.38 266.84 84.69 244.47" id="azdp7LtWQ"></path><path d="" id="byKpznCO4"></path><path d="" id="a11ySjMiDx"></path><path d="M143.67 273.31C159 277.96 172.95 279.83 185.53 278.92C199.41 278.72 213.7 276.54 228.41 272.37C243.12 268.21 258.82 261.89 275.53 253.42C261.93 272.94 247.73 287.11 232.93 295.92C218.12 304.73 202.04 309.51 184.69 310.28C169.93 310.49 154.93 305.95 139.69 296.65C124.46 287.36 108.98 272.82 93.28 253.03C111.54 261.9 128.33 268.66 143.67 273.31Z" id="gcOy3xPw3"></path></defs><g><g><g><use xlink:href="#e1yjtTeBM" opacity="1" fill="#ffe600" fill-opacity="1"></use><g><use xlink:href="#e1yjtTeBM" opacity="1" fill-opacity="0" stroke="#000000" stroke-width="6" stroke-opacity="1"></use></g></g><g><g><use xlink:href="#ebHQyzJxx" opacity="1" fill-opacity="0" stroke="#000000" stroke-width="5" stroke-opacity="1"></use></g></g><g><g><use xlink:href="#bBvIujSki" opacity="1" fill-opacity="0" stroke="#000000" stroke-width="5" stroke-opacity="1"></use></g></g><g><g><use xlink:href="#g343P89h9v" opacity="1" fill-opacity="0" stroke="#000000" stroke-width="5" stroke-opacity="1"></use></g></g><g><use xlink:href="#g16q0lp1Aq" opacity="1" fill="#000000" fill-opacity="1"></use></g><g><use xlink:href="#c1krD9fiUa" opacity="1" fill="#000000" fill-opacity="1"></use></g><g><g><use xlink:href="#azdp7LtWQ" opacity="1" fill-opacity="0" stroke="#000000" stroke-width="5" stroke-opacity="1"></use></g></g><g><g><use xlink:href="#byKpznCO4" opacity="1" fill-opacity="0" stroke="#000000" stroke-width="1" stroke-opacity="1"></use></g></g><g><g><use xlink:href="#a11ySjMiDx" opacity="1" fill-opacity="0" stroke="#000000" stroke-width="1" stroke-opacity="1"></use></g></g><g><use xlink:href="#gcOy3xPw3" opacity="1" fill="#ffffff" fill-opacity="1"></use><g><use xlink:href="#gcOy3xPw3" opacity="1" fill-opacity="0" stroke="#000000" stroke-width="1" stroke-opacity="1"></use></g></g></g></g></svg>