<?xml version="1.0" encoding="UTF-8" standalone="no"?>
<!DOCTYPE svg PUBLIC "-//W3C//DTD SVG 1.1//EN" "http://www.w3.org/Graphics/SVG/1.1/DTD/svg11.dtd">
<svg version="1.1" xmlns="http://www.w3.org/2000/svg" xmlns:xlink="http://www.w3.org/1999/xlink" preserveAspectRatio="xMidYMid meet" viewBox="0 0 370 370" width="370" height="370"><defs><path d="M365 182.86C365 282.2 284.34 362.86 185 362.86C85.66 362.86 5 282.2 5 182.86C5 83.51 85.66 2.86 185 2.86C284.34 2.86 365 83.51 365 182.86Z" id="a1j7bo2ixp"></path><path d="M285 242.86C251.67 276.19 218.33 292.86 185 292.86C151.67 292.86 118.33 276.19 85 242.86" id="bVU4JkhOn"></path><path d="M93.03 232.86L75 250.18L93.03 232.86Z" id="c2nYBMl729"></path><path d="M276.97 232.86L295 250.18L276.97 232.86Z" id="i1FGKfqngJ"></path><path d="M155 122.86C155 142.29 146.16 158.07 135.28 158.07C124.4 158.07 115.56 142.29 115.56 122.86C115.56 103.42 124.4 87.65 135.28 87.65C146.16 87.65 155 103.42 155 122.86Z" id="cn8hYD0y1"></path><path d="M255 122.86C255 142.29 246.16 158.07 235.28 158.07C224.4 158.07 215.56 142.29 215.56 122.86C215.56 103.42 224.4 87.65 235.28 87.65C246.16 87.65 255 103.42 255 122.86Z" id="bMIV4Wnsw"></path></defs><g><g><g><use xlink:href="#a1j7bo2ixp" opacity="1" fill="#ffff00" fill-opacity="1"></use><g><use xlink:href="#a1j7bo2ixp" opacity="1" fill-opacity="0" stroke="#000000" stroke-width="6" stroke-opacity="1"></use></g></g><g><g><use xlink:href="#bVU4JkhOn" opacity="1" fill-opacity="0" stroke="#000000" stroke-width="5" stroke-opacity="1"></use></g></g><g><g><use xlink:href="#c2nYBMl729" opacity="1" fill-opacity="0" stroke="#000000" stroke-width="5" stroke-opacity="1"></use></g></g><g><g><use xlink:href="#i1FGKfqngJ" opacity="1" fill-opacity="0" stroke="#000000" stroke-width="5" stroke-opacity="1"></use></g></g><g><use xlink:href="#cn8hYD0y1" opacity="1" fill="#000000" fill-opacity="1"></use></g><g><use xlink:href="#bMIV4Wnsw" opacity="1" fill="#000000" fill-opacity="1"></use></g></g></g></svg>